ffmpeg started on 2016-11-29 at 23:52:21
Report written to "Output/x264/results/ffmpeg/old_town_cross_2160p50veryfast15000k.log"
Command line:
Tools/ffmpeg/ffmpeg -benchmark -y -i Input/y4m/old_town_cross_2160p50.y4m -c:v libx264 -preset veryfast -b:v 15000k -an Output/x264/encoded/old_town_cross_2160p50veryfast15000k.mkv
ffmpeg version N-82227-gdb23fde Copyright (c) 2000-2016 the FFmpeg developers
  built with gcc 5.4.0 (Ubuntu 5.4.0-6ubuntu1~16.04.2) 20160609
  configuration: --prefix=/home/jaroslav/ffmpeg_build --pkg-config-flags=--static --extra-cflags=-I/home/jaroslav/ffmpeg_build/include --extra-ldflags=-L/home/jaroslav/ffmpeg_build/lib --bindir=/home/jaroslav/bin --enable-gpl --enable-libass --enable-libfdk-aac --enable-libfreetype --enable-libmp3lame --enable-libopus --enable-libtheora --enable-libvorbis --enable-libvpx --enable-libx264 --enable-libx265 --enable-nvenc --enable-libmfx --enable-libxvid --enable-libgsm --enable-libopencore-amrnb --enable-version3 --enable-nonfree
  libavutil      55. 35.100 / 55. 35.100
  libavcodec     57. 66.101 / 57. 66.101
  libavformat    57. 57.100 / 57. 57.100
  libavdevice    57.  2.100 / 57.  2.100
  libavfilter     6. 66.100 /  6. 66.100
  libswscale      4.  3.100 /  4.  3.100
  libswresample   2.  4.100 /  2.  4.100
  libpostproc    54.  2.100 / 54.  2.100
Input #0, yuv4mpegpipe, from 'Input/y4m/old_town_cross_2160p50.y4m':
  Duration: 00:00:10.00, start: 0.000000, bitrate: 4976642 kb/s
    Stream #0:0: Video: rawvideo (I420 / 0x30323449), yuv420p(progressive), 3840x2160, SAR 1:1 DAR 16:9, 50 fps, 50 tbr, 50 tbn, 50 tbc
[libx264 @ 0x2777120] using SAR=1/1
[libx264 @ 0x2777120] using cpu capabilities: MMX2 SSE2Fast SSSE3 SSE4.2 AVX FMA3 AVX2 LZCNT BMI2
[libx264 @ 0x2777120] profile High, level 5.2
[libx264 @ 0x2777120] 264 - core 148 - H.264/MPEG-4 AVC codec - Copyleft 2003-2016 - http://www.videolan.org/x264.html - options: cabac=1 ref=1 deblock=1:0:0 analyse=0x3:0x113 me=hex subme=2 psy=1 psy_rd=1.00:0.00 mixed_ref=0 me_range=16 chroma_me=1 trellis=0 8x8dct=1 cqm=0 deadzone=21,11 fast_pskip=1 chroma_qp_offset=0 threads=6 lookahead_threads=2 sliced_threads=0 nr=0 decimate=1 interlaced=0 bluray_compat=0 constrained_intra=0 bframes=3 b_pyramid=2 b_adapt=1 b_bias=0 direct=1 weightb=1 open_gop=0 weightp=1 keyint=250 keyint_min=25 scenecut=40 intra_refresh=0 rc_lookahead=10 rc=abr mbtree=1 bitrate=15000 ratetol=1.0 qcomp=0.60 qpmin=0 qpmax=69 qpstep=4 ip_ratio=1.40 aq=1:1.00
Output #0, matroska, to 'Output/x264/encoded/old_town_cross_2160p50veryfast15000k.mkv':
  Metadata:
    encoder         : Lavf57.57.100
    Stream #0:0: Video: h264 (libx264) (H264 / 0x34363248), yuv420p, 3840x2160 [SAR 1:1 DAR 16:9], q=-1--1, 15000 kb/s, 50 fps, 1k tbn, 50 tbc
    Metadata:
      encoder         : Lavc57.66.101 libx264
    Side data:
      cpb: bitrate max/min/avg: 0/0/15000000 buffer size: 0 vbv_delay: -1
Stream mapping:
  Stream #0:0 -> #0:0 (rawvideo (native) -> h264 (libx264))
Press [q] to stop, [?] for help
frame=   22 fps=0.0 q=30.0 size=       1kB time=-00:00:00.01 bitrate=N/A speed=N/A    frame=   34 fps= 29 q=47.0 size=       1kB time=00:00:00.22 bitrate=  26.5kbits/s speed=0.191x    frame=   50 fps= 30 q=41.0 size=       1kB time=00:00:00.54 bitrate=  10.8kbits/s speed=0.321x    frame=   66 fps= 30 q=37.0 size=       1kB time=00:00:00.86 bitrate=   6.8kbits/s speed=0.387x    frame=   82 fps= 30 q=35.0 size=       1kB time=00:00:01.18 bitrate=   5.0kbits/s speed=0.425x    frame=   98 fps= 29 q=33.0 size=       1kB time=00:00:01.50 bitrate=   3.9kbits/s speed=0.447x    frame=  114 fps= 29 q=32.0 size=       1kB time=00:00:01.82 bitrate=   3.2kbits/s speed=0.465x    frame=  128 fps= 29 q=32.0 size=       1kB time=00:00:02.10 bitrate=   2.8kbits/s speed=0.476x    frame=  143 fps= 29 q=32.0 size=       1kB time=00:00:02.40 bitrate=   2.4kbits/s speed=0.488x    frame=  158 fps= 29 q=32.0 size=       1kB time=00:00:02.70 bitrate=   2.2kbits/s speed=0.489x    frame=  174 fps= 29 q=32.0 size=    5129kB time=00:00:03.02 bitrate=13909.1kbits/s speed=0.497x    frame=  189 fps= 29 q=32.0 size=    5129kB time=00:00:03.32 bitrate=12652.6kbits/s speed=0.502x    frame=  204 fps= 29 q=32.0 size=    5129kB time=00:00:03.62 bitrate=11604.3kbits/s speed=0.508x    frame=  218 fps= 28 q=32.0 size=    5129kB time=00:00:03.90 bitrate=10771.4kbits/s speed=0.507x    frame=  232 fps= 28 q=32.0 size=    5129kB time=00:00:04.18 bitrate=10050.1kbits/s speed=0.501x    frame=  239 fps= 27 q=32.0 size=    5129kB time=00:00:04.32 bitrate=9724.4kbits/s speed=0.487x    frame=  247 fps= 26 q=33.0 size=    5129kB time=00:00:04.48 bitrate=9377.2kbits/s speed=0.477x    frame=  255 fps= 26 q=33.0 size=    5129kB time=00:00:04.64 bitrate=9053.9kbits/s speed=0.469x    frame=  263 fps= 25 q=33.0 size=    5129kB time=00:00:04.80 bitrate=8752.2kbits/s speed=0.461x    frame=  275 fps= 25 q=34.0 size=    9544kB time=00:00:05.04 bitrate=15509.4kbits/s speed=0.462x    frame=  291 fps= 25 q=33.0 size=    9544kB time=00:00:05.36 bitrate=14583.6kbits/s speed=0.469x    frame=  307 fps= 26 q=33.0 size=    9544kB time=00:00:05.68 bitrate=13762.1kbits/s speed=0.474x    frame=  322 fps= 26 q=32.0 size=    9544kB time=00:00:05.98 bitrate=13071.8kbits/s speed=0.478x    frame=  336 fps= 26 q=32.0 size=    9544kB time=00:00:06.26 bitrate=12487.3kbits/s speed=0.481x    frame=  353 fps= 26 q=32.0 size=    9544kB time=00:00:06.60 bitrate=11844.1kbits/s speed=0.487x    frame=  366 fps= 26 q=32.0 size=    9544kB time=00:00:06.86 bitrate=11395.2kbits/s speed=0.488x    frame=  382 fps= 26 q=32.0 size=    9544kB time=00:00:07.18 bitrate=10887.4kbits/s speed=0.492x    frame=  395 fps= 26 q=32.0 size=    9544kB time=00:00:07.44 bitrate=10507.0kbits/s speed=0.493x    frame=  411 fps= 26 q=32.0 size=    9544kB time=00:00:07.76 bitrate=10073.8kbits/s speed=0.495x    frame=  425 fps= 26 q=32.0 size=   14709kB time=00:00:08.04 bitrate=14985.6kbits/s speed=0.496x    frame=  440 fps= 26 q=32.0 size=   14709kB time=00:00:08.34 bitrate=14446.6kbits/s speed=0.498x    frame=  455 fps= 26 q=32.0 size=   14709kB time=00:00:08.64 bitrate=13945.1kbits/s speed=0.501x    frame=  469 fps= 26 q=32.0 size=   14709kB time=00:00:08.92 bitrate=13507.4kbits/s speed=0.502x    frame=  475 fps= 26 q=32.0 size=   14709kB time=00:00:09.04 bitrate=13328.1kbits/s speed=0.495x    frame=  483 fps= 26 q=33.0 size=   14709kB time=00:00:09.20 bitrate=13096.3kbits/s speed=0.489x    frame=  491 fps= 25 q=33.0 size=   14709kB time=00:00:09.36 bitrate=12872.5kbits/s speed=0.484x    frame=  499 fps= 25 q=33.0 size=   14709kB time=00:00:09.52 bitrate=12656.2kbits/s speed=0.48x    frame=  500 fps= 24 q=-1.0 Lsize=   19268kB time=00:00:09.94 bitrate=15877.8kbits/s speed=0.483x    
video:19263kB audio:0kB subtitle:0kB other streams:0kB global headers:0kB muxing overhead: 0.024000%
bench: utime=71.508s
bench: maxrss=1093552kB
[libx264 @ 0x2777120] frame I:3     Avg QP:27.80  size:665109
[libx264 @ 0x2777120] frame P:183   Avg QP:31.20  size: 64398
[libx264 @ 0x2777120] frame B:314   Avg QP:32.77  size: 18931
[libx264 @ 0x2777120] consecutive B-frames: 16.0%  0.8%  0.0% 83.2%
[libx264 @ 0x2777120] mb I  I16..4: 25.0% 54.1% 20.9%
[libx264 @ 0x2777120] mb P  I16..4:  5.1%  3.3%  0.0%  P16..4: 26.2%  7.0%  1.9%  0.0%  0.0%    skip:56.6%
[libx264 @ 0x2777120] mb B  I16..4:  1.5%  0.8%  0.0%  B16..8:  9.3%  1.0%  0.0%  direct: 5.3%  skip:82.1%  L0:38.1% L1:56.4% BI: 5.5%
[libx264 @ 0x2777120] final ratefactor: 24.67
[libx264 @ 0x2777120] 8x8 transform intra:39.5% inter:43.1%
[libx264 @ 0x2777120] coded y,uvDC,uvAC intra: 63.0% 51.3% 36.2% inter: 4.3% 3.4% 0.0%
[libx264 @ 0x2777120] i16 v,h,dc,p: 24% 22% 44%  9%
[libx264 @ 0x2777120] i8 v,h,dc,ddl,ddr,vr,hd,vl,hu:  8% 10% 61%  4%  3%  3%  4%  3%  4%
[libx264 @ 0x2777120] i4 v,h,dc,ddl,ddr,vr,hd,vl,hu: 15% 24% 12%  7%  7%  7% 11%  7% 10%
[libx264 @ 0x2777120] i8c dc,h,v,p: 73% 13% 13%  1%
[libx264 @ 0x2777120] Weighted P-Frames: Y:0.5% UV:0.0%
[libx264 @ 0x2777120] kb/s:15779.73
